<svg width="123" height="122" viewBox="0 0 123 122" fill="none" xmlns="http://www.w3.org/2000/svg">
<path d="M109.682 25.5477C108.4 25.5451 106.601 25.4109 105.332 25.6085C103.441 25.943 101.515 25.3906 99.6093 25.3323C99.5818 24.866 99.9361 24.0324 99.9191 23.5686C99.5615 23.523 99.2063 23.4977 98.8617 23.4166C98.5406 22.2585 98.6646 21.0371 98.6265 19.8487C98.4441 19.8462 98.0767 19.8385 97.8943 19.8334C97.8359 21.1866 97.8408 22.5398 97.8254 23.893C97.3567 23.5103 97.0299 22.7679 96.3479 22.8211L77.7334 22.8185C76.7502 22.9249 75.9824 22.2534 75.1892 21.7795C75.1133 21.1562 75.0144 20.5379 74.8928 19.9246C74.3353 20.6925 74.2846 21.6757 74.0794 22.5803C72.5995 22.8742 71.1374 23.7029 69.6296 23.8347C69.4979 22.963 69.3585 22.0938 69.2622 21.2145C70.0604 20.8294 70.9575 20.5708 71.6188 19.9424C72.3968 17.6669 71.4972 15.3001 70.9828 13.0753C69.3889 11.9146 67.6227 10.8884 65.7855 10.1484H63.145C61.3307 10.7414 59.524 11.7119 58.4926 13.4199C56.8962 15.926 56.6757 19.1442 57.6792 21.9266C57.5373 22.0228 57.2535 22.2205 57.1116 22.3219C55.3833 20.9535 52.9938 21.6301 51.339 22.778C48.9368 24.6 47.6546 27.58 47.1224 30.5194C46.5726 33.0103 46.8183 35.5672 47.1123 38.0708C46.119 38.3166 45.1003 38.3648 44.0892 38.4408C43.666 38.4585 43.1314 38.6283 43.0858 39.1325C42.7817 41.1142 43.0072 43.1515 42.5992 45.1204C42.3357 46.3824 42.1659 47.6646 42.209 48.957C43.3164 49.2078 44.4313 49.4485 45.5438 49.6842C44.7836 50.0339 43.9093 50.2822 43.367 50.9741C42.8907 54.1694 44.0259 57.3192 43.9245 60.5248C43.367 61.0113 42.6702 61.4497 42.4877 62.2301C42.1456 63.15 42.6904 64.085 42.5562 65.0252C42.4269 66.0489 42.6575 67.0676 42.9844 68.0255C43.291 68.8287 43.0351 69.6903 42.9134 70.5088C42.5536 72.6272 42.1406 74.7507 42.0519 76.9022C41.9809 78.0373 42.3737 79.2081 42.0113 80.3104C40.8305 83.0163 38.8464 85.2746 37.7972 88.0495C37.3336 89.3266 37.5692 90.7862 36.9027 91.9969C36.1907 93.3608 35.2075 94.7061 35.2962 96.3408C35.2176 97.4477 36.0995 98.441 35.727 99.5487C35.1746 101.806 34.6196 104.067 34.0063 106.312C33.5908 107.804 33.5123 109.439 33.9759 110.929C34.5968 111.255 35.2962 111.365 35.9753 111.512H38.5878C39.4317 111.433 40.2679 111.291 41.1117 111.172C41.355 110.002 41.0687 108.858 40.6734 107.769C40.1818 105.022 40.6202 102.103 41.9911 99.68C42.4649 99.0516 43.3265 98.8083 43.6635 98.0583C44.1678 96.9871 44.4086 95.8137 44.8697 94.7239C45.5184 93.1727 46.4054 91.7163 46.8108 90.0662C47.0363 89.1645 46.7778 88.2392 46.8589 87.327C47.1047 86.3158 47.5583 85.3249 48.3033 84.5951C49.3017 83.6602 49.692 82.2289 50.7841 81.3799C51.5291 80.8222 51.5646 79.8239 51.7217 78.9698C51.8687 77.8397 52.2361 76.7577 52.6441 75.701C53.2243 74.2389 53.6248 72.6349 54.7422 71.4819C55.4518 70.7394 55.8065 69.7511 56.065 68.7679C56.5084 69.627 56.8632 70.5798 57.5753 71.2538C58.3735 71.6542 59.5366 71.4388 60.0206 72.3536C61.4118 74.472 61.5157 75.6782 62.9119 77.7966C63.5784 79.1117 65.1849 78.79 66.3734 78.8254C67.0576 79.7656 67.8203 80.0367 67.5923 81.1772C67.5492 82.4617 66.4647 83.4526 66.6167 84.7678C66.7357 87.4438 66.9334 90.1424 67.6277 92.7348C67.871 93.943 68.4994 95.0531 68.5197 96.31C68.5501 97.7647 68.2739 100.146 67.9825 101.583C67.273 103.507 66.789 105.518 66.6978 107.579C68.3753 108.567 70.3113 107.563 72.0648 108.149C73.9881 108.785 76.0052 109.013 78.0198 108.975C79.2589 108.953 80.5005 108.831 81.7195 108.64C81.727 107.939 81.9547 107.176 81.6358 106.52C80.6222 105.321 78.9269 105.316 77.6954 104.488C76.6995 103.59 75.8861 102.495 75.0549 101.444C74.353 100.618 75.2932 99.4749 75.2653 98.4337C75.2754 96.8525 75.2678 95.2234 75.8507 93.733C76.2814 92.5475 76.137 91.2646 75.9039 90.0564C75.5896 88.5685 76.1217 87.1016 76.2586 85.629C76.4562 83.622 76.5981 81.6102 76.7249 79.5983C76.8161 78.4504 76.4233 77.3557 76.1446 76.2635C75.9798 75.2347 75.0018 74.6545 74.7154 73.6788C73.0379 69.0517 71.5023 65.2431 68.1979 61.5535C66.9283 60.2891 66.2872 58.1757 67.0576 56.4754C67.7722 56.6705 68.4817 56.8859 69.2064 57.0684C69.9793 56.0269 70.7345 54.8764 70.8586 53.5385C70.9854 52.16 71.0233 50.7738 71.1449 49.3953C71.2007 47.8927 71.5251 46.3444 71.1374 44.8695C70.884 43.861 69.8881 43.4252 69.1177 42.9133C69.3028 42.2114 69.4902 41.5145 69.6549 40.8076C72.1966 42.0467 74.5532 43.8433 77.3989 44.2842C78.1617 44.4008 78.9776 44.7657 79.7353 44.416C80.7793 43.9142 81.5851 43.0375 82.4972 42.333C84.1498 41.0331 83.9211 38.6612 84.4968 36.8063C85.0596 36.5884 85.6321 36.3882 86.2021 36.1754C85.8267 34.5307 85.1731 32.8684 85.3961 31.1529C86.0805 30.2179 86.9449 29.6579 87.6569 28.743C88.1661 28.0488 89.0475 27.8688 89.8511 27.8891C92.2708 27.8764 94.6937 27.9195 97.1158 27.8916C97.1945 27.5394 96.9083 28.2439 96.9942 27.8916C99.5136 28.0361 102.035 27.4888 104.558 27.803C106.132 28.0741 108.245 27.9626 109.826 27.846C109.743 27.3798 109.702 26.0114 109.682 25.5477ZM78.5215 34.4091C78.0426 33.5526 77.3254 32.7468 77.1835 31.7586C77.2596 31.6547 77.4167 31.4545 77.4927 31.3531C78.5215 31.2441 79.5579 31.3126 80.5892 31.3633C79.9228 32.392 79.2184 33.4006 78.5215 34.4091ZM78.372 31.0946C79.0562 30.745 79.2767 30.0228 79.3653 29.2955C79.9152 29.2676 80.4676 29.2498 81.0251 29.2372C81.0454 29.7719 81.0631 30.3015 81.0834 30.8362C80.1914 31.0364 79.2767 31.0338 78.372 31.0946Z" fill="#333333"/>
<path d="M109.681 58.2945H91.943V53.2265H114.749C114.418 51.217 113.076 49.4229 111.215 48.645C109.965 48.0723 108.569 48.1635 107.236 48.1635L91.943 48.1584C89.409 48.1584 86.875 50.6924 86.875 53.2265V58.2945C87.0145 60.8235 89.409 63.3625 91.943 63.3625H109.681V68.4306H86.875C87.2148 70.0447 88.0662 71.5652 89.4544 72.4673C90.6708 73.3441 92.1993 73.5417 93.6532 73.4986H109.681C112.215 73.4986 114.749 70.9646 114.749 68.4306V63.3625C114.749 60.8285 112.519 58.3427 109.681 58.2945Z" fill="#333333"/>
<path d="M13.3884 53.2262H33.6605C33.6605 50.4262 31.3925 48.1582 28.5925 48.1582H13.3884C10.5883 48.1582 8.32031 50.4262 8.32031 53.2262V68.4304C8.32031 71.2304 10.5883 73.4984 13.3884 73.4984H28.5925C31.3925 73.4984 33.6605 71.2304 33.6605 68.4304H13.3884V53.2262Z" fill="#333333"/>
</svg>
