<svg width="121" height="122" viewBox="0 0 121 122" fill="none" xmlns="http://www.w3.org/2000/svg">
<path d="M110.417 19.4728V14.6075C110.417 13.2647 109.348 12.1748 108.024 12.1748H98.4568C97.5097 12.1748 96.7491 12.2381 96.0647 12.4181V12.1748C96.0647 10.832 94.9959 9.74219 93.6734 9.74219H79.3212C75.1736 9.74219 73.6738 12.1359 72.7935 14.6075H70.8512C70.2939 13.8509 69.7534 12.8706 69.7534 12.1748C69.7534 10.832 68.6841 9.74219 67.3614 9.74219H50.6177C49.3953 9.74219 48.3692 10.6982 48.2376 11.9316C48.1826 12.4424 47.166 14.6075 45.5849 14.6075H39.031C38.8755 14.4202 38.6506 14.0723 38.4569 13.6271C38.0741 12.7441 37.2131 12.1748 36.2659 12.1748H12.3462C11.0235 12.1748 9.95422 13.2647 9.95422 14.6075V34.0688C9.95422 40.9362 11.9276 49.6305 12.3438 51.3844L12.3247 55.0699L10.7029 56.6293C10.2245 57.0866 9.95422 57.7264 9.95422 58.3954V68.126C9.95422 68.7731 10.2054 69.391 10.6551 69.8459L12.3462 71.5658V82.3275L10.0786 89.2509C9.93274 89.6912 9.91595 90.1607 10.0284 90.6107L12.2505 99.6554L10.081 106.282C9.83462 107.024 9.95901 107.841 10.4087 108.474C10.856 109.106 11.5783 109.481 12.3462 109.481H45.8337C46.47 109.481 47.0775 109.225 47.5249 108.768L47.7401 108.549C49.0102 110.315 50.7779 111.914 53.0096 111.914H60.1855C61.946 111.914 63.4864 111.133 64.8426 110.442C65.7707 109.967 66.7299 109.481 67.3614 109.481H79.3212C79.9575 109.481 80.565 109.225 81.0124 108.768L81.5936 108.177C81.7444 108.372 81.888 108.564 82.029 108.749C83.2032 110.306 84.4163 111.914 86.497 111.914H98.4568C99.7794 111.914 100.849 110.826 100.849 109.481V107.732L107.446 109.405C108.161 109.593 108.92 109.422 109.503 108.958C110.084 108.496 110.421 107.783 110.417 107.029C110.414 106.79 110.266 82.9211 110.417 70.5879C110.424 69.931 110.17 69.301 109.716 68.8363L108.024 67.1189V55.9627C108.024 55.3181 107.774 54.6977 107.324 54.2428L106.152 53.0508L107.599 50.1073L109.716 47.9544C110.165 47.4971 110.417 46.8767 110.417 46.2321L110.381 34.0445C110.381 33.8474 110.357 33.6528 110.311 33.4606L108.168 24.6252L110.165 20.5627C110.331 20.2245 110.417 19.8499 110.417 19.4728ZM81.9261 29.2035L89.207 34.0688L86.7792 48.6647L67.3614 34.0688L81.9261 29.2035ZM36.2659 92.4523L26.698 85.1543L31.4819 68.126L50.6177 87.587L36.2659 92.4523ZM86.9754 90.0196H75.8122L26.698 31.4561L35.6272 29.2035L93.6734 74.2514L86.9754 90.0196Z" fill="#ED5565"/>
</svg>
