<svg width="150" height="150" viewBox="0 0 150 150" fill="none" xmlns="http://www.w3.org/2000/svg">
<path d="M71.64 59.5121C71.64 59.5121 74.2637 59.7142 76.4838 62.5394L75.2728 62.7416L74.6673 62.5394C74.6673 62.5394 72.8509 60.3193 71.6399 59.5121H71.64ZM67.6035 72.0253L66.3925 68.9978H65.9888L63.9706 71.4198C65.3834 72.6307 67.6034 72.0254 67.6034 72.0254L67.6035 72.0253ZM86.1714 54.2646L85.1623 54.6681L86.3732 56.8882L90.4097 58.301C88.7951 54.8699 86.1714 54.2644 86.1714 54.2644V54.2646ZM74.6674 58.503C75.8783 59.9157 77.0893 61.934 77.0893 61.934C79.1075 59.9158 83.3458 59.1084 88.7951 59.3102C81.1258 57.6956 74.6674 58.503 74.6674 58.503ZM67.1998 55.4755C67.1998 55.4755 69.4199 55.4755 72.4473 56.0812C70.429 54.6684 67.1998 53.8611 67.1998 53.8611V55.4755ZM85.7677 66.5759L82.3367 69.6034L84.9604 70.4106L87.5842 67.5851L86.1714 66.9794L85.7677 66.5759ZM62.9615 50.6317C62.9615 50.6317 64.3743 51.4391 64.5761 51.4391C64.7779 51.4391 67.6035 52.4482 68.8144 52.8518C69.8235 53.2553 70.429 52.8518 70.6308 52.8518C70.8327 52.8518 74.2637 50.8336 74.2637 50.8336C71.2363 49.6226 68.4108 48.8153 68.4108 48.8153C68.2089 48.8153 62.9615 50.6317 62.9615 50.6317V50.6317ZM83.5477 52.4482C83.3458 52.0447 82.9422 52.0447 80.5203 51.6408C78.3002 51.4395 76.2819 51.2373 75.8783 51.2373C75.4746 51.2373 75.2729 51.4395 75.2729 51.4395C75.2729 51.4395 74.0619 52.2467 73.0528 52.8522C72.0437 53.4578 71.8418 53.6595 71.64 54.0631C71.4382 54.2653 72.0437 55.0723 72.0437 55.0723L73.6583 57.0905C73.8601 57.0905 74.4656 57.4941 74.4656 57.4941C74.4656 57.4941 77.6948 57.2919 79.713 57.0905H84.9605C85.1623 57.0905 84.9605 56.2833 84.5568 55.2741C84.1532 54.4668 83.5477 52.4486 83.5477 52.4486L83.5477 52.4482ZM64.3743 54.6683C64.3743 54.6683 64.5761 54.6683 64.9797 54.8704C65.3834 54.8704 65.5851 54.4669 65.5851 54.0631C65.5851 53.4574 64.9797 53.2558 64.9797 53.2558H64.576L63.9706 53.4579L63.7687 54.8707H63.9706L64.3743 54.6686C64.1724 54.265 64.1724 54.0629 64.1724 53.6595C64.1724 53.4573 64.5761 53.0538 64.7779 53.0538C64.7779 53.0538 65.1815 53.0538 64.9797 53.8611C64.9797 54.6684 64.3743 54.6684 64.3743 54.6684V54.6683ZM98.4827 70.6125L96.8681 72.8325V73.0347H99.0882C99.4919 71.6219 98.4827 70.6128 98.4827 70.6128L98.4827 70.6125ZM58.1177 60.1175H57.714L56.7049 59.9154C55.6957 59.7132 56.0994 57.8971 56.0994 57.8971L54.8885 58.3006C54.4848 57.4933 52.6684 55.2732 52.6684 55.2732L52.2647 56.8878C52.4666 57.0899 53.4757 58.7043 53.6775 59.1079L53.0721 59.7135C53.0721 59.7135 52.8702 60.1171 52.8702 60.3192C52.8702 60.5213 52.6684 60.7227 52.6684 60.7227L51.8611 61.1262H51.6592L48.8337 58.9061V60.5207H49.0355C49.2374 60.9243 49.641 61.7317 50.6501 62.1353C51.4574 62.5389 52.4666 62.5389 52.8702 62.3375C53.2739 62.5396 53.4756 62.5397 53.6775 62.741C54.4848 63.1446 54.6866 62.9432 54.6866 62.9432L55.8976 62.5396H56.0994L56.3013 62.3375L56.7049 61.5301C56.7049 61.5301 58.7232 61.7323 59.5305 61.7323C60.3378 60.5213 62.9615 58.7049 64.778 58.5031C66.5944 58.5031 69.6218 58.9066 72.0437 61.3286C74.2637 63.7505 73.6583 66.9798 73.6583 66.9798L78.0984 68.3926L76.0802 66.9798C74.4656 62.9432 70.6309 59.3104 70.6309 59.3104C70.6309 59.3104 69.6218 59.1083 69.0163 59.1083C68.4109 58.9061 68.0072 58.5026 68.0072 58.5026C68.0072 58.5026 67.8053 58.3004 67.4016 57.6952L66.998 56.8879C66.998 56.8879 66.5943 56.4844 65.9888 56.0807C65.3833 55.6771 63.1633 55.475 61.9523 55.2733C60.7414 55.0712 60.7414 55.2733 60.7414 55.2733C64.1724 56.0807 65.1815 56.2825 65.3834 56.4843C65.3834 56.4843 65.5852 56.8878 65.787 57.0899C62.9615 56.4843 60.3378 56.8878 59.7323 57.0899C60.136 57.6956 60.136 58.5027 59.7323 59.1082C59.3286 59.5117 58.1177 60.1173 58.1177 60.1173L58.1177 60.1175ZM96.4645 74.6489L97.07 77.2727C97.07 77.2727 97.6754 76.667 98.281 75.8599C98.8865 75.0526 99.0883 74.2453 99.0883 74.2453L96.6664 74.4475L96.4645 74.6489ZM47.8246 56.2829L47.6227 58.503H48.8337L49.0355 57.0902V57.8974H49.2374V56.6865H49.0355V55.8792L50.852 56.8883L51.0538 57.2918L51.4575 57.6954H51.8611L52.063 57.4932V57.2911C50.852 57.2911 50.852 56.6854 50.852 56.6854C50.852 56.6854 51.0539 55.2727 51.2557 54.869C51.4576 54.4655 52.2648 54.6669 52.2648 54.6669L52.063 54.4648H51.6593C51.2557 54.2626 50.0447 53.4556 49.6411 53.2538V53.0517L49.8429 52.8495V52.0422H50.0447C50.0447 51.8401 50.2466 51.8401 50.2466 51.6387C50.6503 51.6387 53.6776 51.033 53.6776 51.033L50.8521 50.4274V50.226C50.0448 50.0239 49.4393 49.8225 49.0356 49.6203C48.0265 50.8313 47.6229 52.4459 47.6229 52.4459C47.6229 52.4459 47.421 55.2714 47.421 55.6751C47.2192 56.0786 47.8247 56.2808 47.8247 56.2808L47.8246 56.2829ZM95.2535 72.227L95.6572 72.8327L95.8591 72.6306L97.4737 70.6123V70.4102C96.6664 70.4102 95.2536 72.2266 95.2536 72.2266L95.2535 72.227ZM90.4097 68.5942L89.1988 68.1906L86.3732 71.4198L88.3915 72.0255C88.7952 70.4109 90.4097 68.5944 90.4097 68.5944V68.5942ZM94.6481 73.2362C93.6389 75.2544 93.8408 76.6672 93.8408 76.6672L94.8499 74.4472V74.0436C95.0517 74.0436 94.8499 73.6401 94.648 73.2364L94.6481 73.2362ZM93.6389 60.1175C93.6389 60.1175 93.2353 60.9249 93.0334 61.1267C92.8316 61.3288 91.4188 61.5302 90.6115 61.7324C89.8042 62.1359 88.3914 62.7415 87.9878 63.1451C87.786 63.3473 87.7859 63.9524 87.7859 64.1543C87.7859 64.1543 88.1896 64.3564 88.3914 64.3564L86.575 65.971L86.9786 66.3745L91.4188 67.7873C92.4279 66.9801 93.8407 66.7782 93.8407 66.7782C93.0334 66.3747 89.6024 64.9618 88.5932 64.5582C88.5932 64.5582 87.9878 64.356 87.9878 64.1546V63.549C87.9878 63.549 90.6115 61.5307 94.648 61.5307L95.2536 60.3197L93.6389 60.1175ZM96.2627 77.8782L95.4554 75.4563H95.2535L94.0426 77.6763L94.2444 77.8785C95.2536 78.282 96.2627 77.8785 96.2627 77.8785L96.2627 77.8782ZM65.787 54.8701L66.3925 55.0722C66.3925 55.0722 66.7962 55.0722 66.7962 54.6687V53.8614L66.1907 53.4579L65.3834 53.2558C65.5852 53.4579 65.5852 53.6593 65.5852 53.6593H65.7871C65.7871 53.4572 65.9889 53.4572 65.9889 53.6593C65.9889 53.6593 66.3926 53.8614 66.1908 54.4666C66.3926 54.6687 65.9889 54.8701 65.7872 54.8701H65.787ZM63.9706 65.9705C62.5578 68.5942 63.5669 70.4106 63.5669 70.4106L65.3834 67.7869V67.3834L63.9706 65.9705ZM50.852 50.4299L53.2739 51.0356C53.4757 51.0356 54.8885 50.8334 54.8885 50.8334L51.0538 49.8243L50.852 50.4299ZM52.2647 49.8242C55.4939 50.2278 56.0994 50.8333 56.0994 50.8333C56.0994 50.8333 57.3104 50.6312 57.9158 50.6312C56.9067 49.8239 52.4666 48.4111 52.4666 48.4111C52.4666 48.4111 52.2647 49.0168 52.2647 49.8239L52.2647 49.8242ZM57.1085 56.0808C56.5031 56.4843 55.8976 57.6954 56.0994 58.7046C56.3013 59.7137 56.5031 59.7137 57.1085 59.7137C56.0994 59.3102 56.3012 57.6954 57.1085 56.6863C57.714 55.879 58.3195 56.4841 58.3195 56.4841C58.3195 56.4841 57.7141 55.6768 57.1085 56.0806V56.0808ZM42.7789 85.9509C40.1552 85.9509 37.1278 86.9601 38.9443 89.7856C53.8793 115.417 69.6217 121.472 76.282 124.701C79.3093 123.289 84.1531 121.069 90.0061 117.032C93.4371 114.812 93.0335 111.381 92.2262 109.161C87.9878 98.666 64.7779 86.7582 42.7789 85.9509V85.9509ZM126.94 38.1184C120.885 33.88 105.95 26.2106 76.282 26.2106C65.9889 26.2106 57.3104 27.2198 50.4483 28.6325C52.0629 31.2563 52.8702 34.2837 52.8702 37.5129C52.8702 41.953 51.2556 45.9895 48.6319 49.0169C49.2373 49.2183 50.0447 49.4205 51.0538 49.6226L51.4575 48.6135C51.4575 48.6135 51.8611 48.6135 52.0629 48.8156C52.0629 47.8065 52.6683 47.8065 52.6683 47.8065C52.6683 47.8065 52.6683 47.6044 52.8702 47.6044C53.8793 47.8065 56.7049 49.2189 57.9158 49.8245C59.1268 50.4301 59.1268 50.6317 59.1268 50.6317C59.1268 50.6317 61.9523 50.6317 62.7596 50.4296C63.5669 50.4296 64.9797 49.8239 66.998 49.2186C69.0162 48.613 69.4199 48.4113 69.8235 48.4113C70.2272 48.4113 73.86 48.6134 77.0892 49.0169C80.3184 49.4205 83.3458 50.6315 83.9513 51.0352L84.9604 51.2373L85.1623 50.6316L83.5476 50.026C83.5476 50.026 83.7495 49.0169 83.7495 48.815C83.7495 48.6129 83.9513 48.4115 84.1532 48.4115C84.355 48.4115 86.1714 48.815 86.7769 49.0172C87.3824 49.2186 89.4006 50.6317 89.6024 50.6317C89.8043 50.6317 89.8043 50.8339 89.8043 50.8339C89.8043 51.2374 89.4006 52.0448 89.4006 52.0448L88.7952 51.8427L89.4006 52.0448C89.4006 52.0448 90.006 52.247 90.2079 52.4484C90.4097 52.6505 91.0152 53.054 91.6207 53.6593C92.2261 54.0628 92.0244 54.6684 92.0244 54.6684L93.4371 56.0812V56.6869L96.8682 60.1179V60.32L95.2536 61.3291C95.2536 61.3291 97.4736 61.127 99.0882 61.9348C100.703 62.7421 100.905 63.1458 100.905 63.5494C100.501 63.7516 99.8955 63.953 99.8955 63.953C98.6846 64.3565 95.6572 66.3749 95.6572 66.3749V66.577L97.2718 66.9805C99.0882 65.3659 102.317 64.7605 104.739 65.1641C113.014 66.7787 118.665 72.228 119.876 76.87C119.876 77.0721 120.078 77.4756 120.078 77.6773C128.353 58.302 127.546 44.3761 126.94 38.1195L126.94 38.1184ZM97.8773 67.5848C98.0791 67.787 98.2809 67.787 98.4828 67.9883C99.6937 68.7956 100.299 69.1993 100.501 71.0158C100.703 72.4285 100.299 74.4468 99.2901 76.2632C104.941 80.0979 112.812 77.0704 115.84 80.0979C115.234 72.4285 103.932 64.7592 97.8773 67.5847V67.5848ZM51.4574 57.6954L51.0538 57.8975V59.5122L51.4574 59.31V57.6954ZM109.785 82.7218C105.547 82.7218 101.308 81.309 98.2809 77.6761V77.8783C96.4645 80.3002 94.4462 80.3002 93.6389 80.3002C92.8316 80.3002 90.2079 79.0892 89.1988 77.8783C88.1897 76.6673 88.1897 74.4472 88.1897 74.4472L84.1531 73.0344L79.1075 70.2089L78.3002 70.0067C76.6856 70.8141 74.6674 70.2089 72.8509 68.7958C72.6491 69.6031 71.64 71.6213 70.429 72.6305C69.2181 73.6396 66.7962 75.0524 64.9797 75.0524C63.1633 75.0524 59.1268 73.0341 57.9158 70.2086C56.7049 67.383 57.9158 64.3557 57.9158 64.3557L55.8976 63.9521L55.0903 62.943C55.0903 62.943 52.6684 64.9612 50.0447 64.154C47.4209 63.3467 45.2009 61.1266 44.5954 59.1083C44.1917 57.0901 44.7972 55.2736 44.9991 55.0719C44.5954 53.6591 44.5954 52.8517 44.5954 52.8517H44.3935V52.246C41.7698 54.0624 38.7424 54.8698 35.5132 54.8698C31.8804 54.8698 28.4493 53.6588 25.6238 51.8424C26.0275 56.2826 27.2384 61.53 28.853 67.3829C31.0731 75.456 38.3388 78.0797 49.2373 79.8961C73.2546 83.7308 96.2626 102.097 94.648 113.399C100.703 108.354 107.161 100.886 113.62 89.7855C116.243 85.5472 113.821 82.7217 109.785 82.7217L109.785 82.7218ZM45.6045 54.8699L45.4027 57.0899H46.8154V56.8878H46.6136V56.6857H46.4118L46.6136 56.2821L46.8154 55.2729L46.6136 55.0708V54.6673L46.8154 54.4651L47.0173 52.0432L46.0082 51.4376C46.4118 49.8229 47.4209 48.4101 47.4209 48.4101H46.8155C45.8064 49.6211 45.4027 51.2357 45.4027 51.2357C45.4027 51.2357 45.2009 53.8595 45.2009 54.2631C45.2009 54.8687 45.6046 54.8687 45.6046 54.8687L45.6045 54.8699ZM67.8053 68.3922L68.8144 71.6214C70.8327 70.2086 71.2363 67.9885 71.2363 67.9885L68.0071 68.1906L67.8053 68.3922ZM69.6217 63.3465L68.0071 66.172L68.209 66.3742L71.4382 66.5763C71.4382 64.3563 69.6217 63.3471 69.6217 63.3471L69.6217 63.3465ZM49.4392 57.0899L49.2373 58.3009H49.4392V57.0899ZM64.7779 64.7593L66.3925 65.9703L66.7962 65.7681L68.6126 62.9425C66.3925 62.7404 64.7779 64.759 64.7779 64.759L64.7779 64.7593ZM49.8428 57.2918L49.641 57.0896V58.5024H49.8428V57.2918ZM50.4483 57.6953L50.2464 59.108H50.4483V57.6953ZM50.852 57.8974L50.6501 59.3102H50.852V57.8974ZM50.0446 57.4939L49.8428 58.9066H50.0446V57.4939Z" fill="#0168BD"/>
<path d="M35.5132 50.0263C42.424 50.0263 48.0263 44.424 48.0263 37.5132C48.0263 30.6023 42.424 25 35.5132 25C28.6023 25 23 30.6023 23 37.5132C23 44.424 28.6023 50.0263 35.5132 50.0263Z" fill="#646464"/>
</svg>
