<svg width="123" height="122" viewBox="0 0 123 122" fill="none" xmlns="http://www.w3.org/2000/svg">
<path d="M38.0119 30.5391C51.8906 19.9698 71.1307 19.9698 85.0097 30.5391L94.5911 18.7531C75.1231 3.58343 47.8601 3.58343 28.3918 18.7151L38.0119 30.5391Z" fill="#F79D19"/>
<path d="M97.557 21.2246L87.9748 33.0486C100.751 44.9867 103.602 64.1865 94.7813 79.3182L73.6779 59.0539L63.8297 36.8886V70.5738L84.7045 90.6483C70.9782 100.875 52.1184 100.875 38.3918 90.6483L59.2668 70.6118V36.8506L49.3806 59.0159L28.2774 79.2802C19.4559 64.1865 22.2696 44.9867 35.0456 33.0486L25.4257 21.2246C14.2847 31.2237 7.93469 45.481 7.93469 60.4226C7.93469 89.6972 31.9277 113.459 61.4722 113.459C91.0164 113.459 115.01 89.6972 114.972 60.4226C115.01 45.481 108.66 31.2237 97.557 21.2246Z" fill="#333333"/>
</svg>
