<svg width="123" height="122" viewBox="0 0 123 122" fill="none" xmlns="http://www.w3.org/2000/svg">
<path d="M104.463 38.4648H94.9739C89.3479 38.4648 85.1719 42.6409 85.1719 48.2717V83.0636H95.9137V49.8518C95.891 49.1736 96.1513 48.5163 96.6313 48.0369C97.1114 47.5575 97.769 47.2989 98.4469 47.3228H100.976C102.766 47.3228 103.509 48.3971 103.509 49.8518V59.0231H97.8209V67.8766H103.514V83.0636H114.257V48.2717C114.266 42.6409 110.09 38.4648 104.463 38.4648Z" fill="#333333"/>
<path d="M54.1572 48.3388V83.0636H64.9847V65.2223H77.0699V56.3061H64.9847V49.9323C64.962 49.2498 65.223 48.5884 65.7055 48.105C66.1879 47.6217 66.8489 47.3596 67.5315 47.381H81.5503V38.4648H64.0268C58.3602 38.4648 54.1572 42.6678 54.1572 48.3388Z" fill="#333333"/>
<path d="M49.8782 38.4648H39.0508V83.0636H49.8782V38.4648Z" fill="#333333"/>
<path d="M7.78125 48.3388V83.0636H18.6132V65.2223H30.6983V56.3061H18.6132V49.9323C18.5892 49.2494 18.8497 48.5871 19.3324 48.1035C19.8152 47.6199 20.477 47.3582 21.16 47.381H35.1743V38.4648H17.6553C11.9842 38.4648 7.78125 42.6678 7.78125 48.3388Z" fill="#333333"/>
</svg>
