<svg width="122" height="122" viewBox="0 0 122 122" fill="none" xmlns="http://www.w3.org/2000/svg">
<path fill-rule="evenodd" clip-rule="evenodd" d="M34.9731 96.0406V25.9489C36.8812 7.28654 60.5001 9.15657 60.8242 9.1822C60.8263 9.18236 60.8275 9.18244 60.8276 9.18244C85.9964 8.17734 86.0483 25.9489 86.0483 25.9489V39.2335H64.6278L64.742 28.7675C60.2358 24.7158 56.7365 28.6534 56.7365 28.6534L56.8507 46.2074C57.4114 42.7153 68.3449 42.9433 68.3449 42.9433C84.2417 42.9433 86.0483 52.0519 86.0483 52.0519V96.6001C83.1097 115.045 59.7787 112.236 59.7787 112.236C33.8414 112.807 34.9731 96.0406 34.9731 96.0406ZM51.7733 99.4188V67.2432L51.7526 66.7979H51.1296V65.4922H51.7422V64.3107H53.0089V63.7511H58.6469C60.0902 67.9376 66.9225 64.2071 66.9225 64.2071C72.9032 60.1243 75.4783 63.7821 75.4783 63.7821V71.782C68.5525 71.782 64.8146 73.6991 64.8146 73.6991V82.4445C60.5159 81.9061 58.6573 84.3411 58.6573 84.3411V101.076H57.972V101.781H52.8323V101.149H51.1191V99.4188H51.7733Z" fill="#333333"/>
<path d="M59.1971 76.817V81.739H64.2331V74.9206L63.5271 73.6875H62.3642L62.3954 74.848C62.3954 74.848 63.5895 75.0552 63.7349 75.8013L63.2885 76.2263C63.2986 76.2159 62.011 74.2885 59.1971 76.817Z" fill="#333333"/>
</svg>
