<svg width="150" height="150" viewBox="0 0 150 150" fill="none" xmlns="http://www.w3.org/2000/svg">
<g clip-path="url(#clip0_163_13)">
<path fill-rule="evenodd" clip-rule="evenodd" d="M124.645 77.4011C123.984 80.1706 123.324 82.8083 122.796 85.3141L128.078 101.14L136 77.4011H124.645ZM37.6338 30.846C34.8611 29.5272 31.6922 28.8677 28.5234 28.9996C26.1468 28.9996 23.6381 29.3953 21.3935 30.1866C19.5451 30.846 17.8286 32.033 16.5083 33.4837C15.452 34.6706 14.6598 36.2533 14.3957 37.8359C14.1316 40.0779 13.9996 42.3199 13.9996 44.5619V56.6953C13.8676 59.8605 14.2637 62.8938 15.1879 65.9272C16.1122 68.0373 17.8286 69.7518 19.9412 70.675C22.8459 71.8619 25.8827 72.5214 28.9195 72.3895C31.9563 72.5214 34.9931 71.7301 37.7658 70.4112C39.8784 69.3562 41.4628 67.7735 42.3871 65.6634C43.1793 62.6301 43.5754 59.5967 43.4433 56.4315V54.8489H31.0321V60.1243C31.1641 61.575 31.0321 63.0257 30.636 64.4764C30.2399 65.1359 29.5797 65.5315 28.7875 65.3996C27.9953 65.5315 27.3351 65.1359 26.939 64.4764C26.5429 63.1576 26.4109 61.8388 26.5429 60.5199V41.133C26.4109 39.8141 26.5429 38.3634 26.939 37.0446C27.2031 36.3851 27.8632 36.1214 28.9195 36.1214C29.5797 35.9895 30.2399 36.3851 30.636 36.9127C31.0321 38.2315 31.1641 39.5504 31.0321 40.8692V48.1228H43.4433V44.1663C43.5754 41.2648 43.3113 38.3634 42.3871 35.5938C41.4628 33.3518 39.7464 31.7692 37.6338 30.846ZM89.9195 29.7909H77.5083V71.4663H97.4455V63.1576H89.9195V29.7909ZM112.894 29.7909H100.482V71.4663H120.42V63.1576H112.894V29.7909ZM50.1771 29.659L43.8394 71.4663H55.5905L59.6836 38.7591L61.9282 56.6953H59.4195L58.6273 63.6851H62.8524L63.7767 71.4663H75.5277L68.2658 29.659H50.1771ZM128.21 46.0127C127.813 45.4851 127.417 45.0895 126.757 44.8257C126.097 44.5619 125.437 44.4301 124.777 44.4301C124.116 44.4301 123.456 44.5619 122.796 44.8257C122.268 45.0895 121.74 45.4851 121.476 46.0127C121.08 46.5402 120.948 47.0677 120.816 47.5953C120.816 48.2547 120.684 49.1779 120.684 50.6286V53.1344C120.684 54.5851 120.684 55.6402 120.816 56.2996C120.948 56.8272 121.08 57.4866 121.476 57.8822C121.872 58.4098 122.268 58.8054 122.928 59.0692C123.588 59.333 124.249 59.4648 124.909 59.4648C125.569 59.4648 126.229 59.333 126.889 59.0692C127.417 58.8054 127.945 58.4098 128.21 57.8822C128.606 57.3547 128.738 56.8272 128.87 56.2996C128.87 55.6402 129.002 54.717 129.002 53.2663V50.8924C129.002 49.4417 129.002 48.3866 128.87 47.7272C128.738 47.0677 128.474 46.5402 128.21 46.0127ZM125.305 55.1127C125.305 55.6402 125.305 56.1677 125.173 56.6953C125.173 56.959 124.909 57.0909 124.777 57.0909C124.513 57.0909 124.381 56.9591 124.381 56.8272C124.249 56.2996 124.249 55.7721 124.249 55.3764V48.6504C124.249 48.2547 124.249 47.7272 124.381 47.3315C124.513 47.1996 124.645 47.0677 124.777 47.0677C124.909 47.0677 125.173 47.1996 125.173 47.3315C125.305 47.7272 125.305 48.2547 125.305 48.6504V55.1127ZM122.004 89.1388L121.344 87.0286L118.175 77.4011H106.82L115.534 104.174V119.34H127.021V104.174L122.004 89.1388ZM130.058 59.2011H133.359V53.1344H135.471V50.3648H133.359V47.5953H135.736V44.8257H130.058V59.2011ZM40.6706 80.4344C39.3503 79.2475 37.6338 78.3243 35.7853 78.0605C31.6922 77.4011 27.5992 77.2692 23.6381 77.4011H14.2637V119.076H29.9758C32.2204 119.076 34.465 118.945 36.7096 118.681C38.0299 118.417 39.3503 117.889 40.4065 117.23C41.4628 116.571 42.123 115.516 42.5191 114.329C43.0472 111.823 43.3113 109.317 43.1793 106.811V92.0402C43.3113 89.4025 43.1793 86.7648 42.7832 84.1272C42.3871 82.8083 41.7269 81.4895 40.6706 80.4344ZM30.636 105.888C30.636 108.658 30.3719 110.372 29.9758 111.032C29.5797 111.691 28.3914 111.955 26.6749 111.955V84.5228C27.5992 84.3909 28.5234 84.5228 29.4477 84.9185C29.9758 85.1822 30.2399 85.5779 30.3719 86.1054C30.5039 87.2924 30.636 88.4793 30.636 89.7982V105.888ZM77.2442 85.7098H84.6381V119.076H97.1814V85.7098H104.575V77.4011H77.2442V85.7098ZM62.1922 108.13C62.3243 109.449 62.1922 110.768 61.9282 112.087C61.6641 112.614 61.0039 113.01 60.3438 112.878C59.8156 112.878 59.2875 112.614 59.0234 112.087C58.7593 110.9 58.6273 109.713 58.7593 108.658V77.4011H46.3481V102.063C46.3481 105.097 46.3481 108.262 46.6122 111.295C46.8762 112.878 47.5364 114.329 48.4606 115.516C49.781 116.966 51.4974 118.153 53.3459 118.681C55.7225 119.604 58.3632 120 60.8719 119.868C63.1165 119.868 65.3611 119.604 67.6057 118.813C69.3221 118.153 70.9065 117.098 72.2269 115.779C73.2832 114.724 73.9433 113.274 74.3394 111.823C74.6035 109.581 74.7355 107.339 74.7355 105.097V77.4011H62.3243L62.1922 108.13Z" fill="#887A5E"/>
</g>
<defs>
<clipPath id="clip0_163_13">
<rect width="122" height="91" fill="white" transform="translate(14 29)"/>
</clipPath>
</defs>
</svg>
